<!DOCTYPE svg PUBLIC "-//W3C//DTD SVG 20010904//EN" "http://www.w3.org/TR/2001/REC-SVG-20010904/DTD/svg10.dtd">
<svg version="1.0" xmlns="http://www.w3.org/2000/svg" width="54px" height="48px" viewBox="0 0 1080 960" preserveAspectRatio="xMidYMid meet">
<g id="layer1" fill="#fff7c2" stroke="none">
 <path d="M306 939 c-108 -26 -226 -122 -272 -224 -32 -69 -39 -131 -25 -228 13 -95 47 -164 111 -227 158 -159 416 -157 569 5 122 129 150 291 77 451 -76 166 -280 265 -460 223z m79 -176 c4 -21 7 -42 7 -48 2 -47 -17 -47 -37 1 -8 19 -19 33 -25 29 -11 -7 -12 -155 -1 -194 11 -41 31 -37 31 6 0 81 42 83 44 2 1 -38 -3 -45 -33 -66 -19 -13 -47 -23 -62 -23 -36 0 -43 24 -43 135 0 104 17 160 52 179 45 25 60 20 67 -21z m95 -24 c0 -27 3 -49 8 -49 4 0 22 23 40 51 31 48 56 68 69 56 3 -4 -14 -42 -39 -85 l-45 -78 45 -57 c25 -32 42 -60 39 -63 -14 -15 -58 9 -82 43 l-25 38 0 -88 c0 -51 -4 -87 -10 -87 -5 0 -20 10 -31 21 -21 21 -22 28 -16 176 5 147 15 192 38 177 5 -3 9 -27 9 -55z m-245 11 c3 -5 -14 -22 -39 -37 -26 -15 -46 -31 -46 -34 0 -3 18 -14 40 -24 50 -22 68 -42 47 -50 -16 -7 -137 39 -148 56 -15 24 5 48 59 72 64 29 78 31 87 17z m454 -16 c54 -23 61 -30 61 -54 0 -26 -7 -31 -70 -56 -51 -20 -74 -24 -82 -16 -8 8 3 18 41 39 28 15 51 30 51 33 0 3 -20 18 -46 33 -25 15 -42 32 -39 37 9 14 17 13 84 -16z"/>
 </g>
<g id="layer2" fill="#757575" stroke="none">
 <path d="M459 950 c-6 -4 7 -10 28 -13 106 -17 231 -116 279 -221 73 -160 45 -322 -77 -451 -155 -164 -415 -164 -574 -1 -44 46 -61 75 -103 176 -10 24 -11 24 -11 -11 -1 -48 25 -134 59 -194 135 -237 448 -308 680 -154 297 199 261 671 -63 824 -72 35 -194 59 -218 45z"/>
 </g>
<g id="layer3" fill="#686e87" stroke="none">
 <path d="M318 784 c-35 -19 -52 -75 -52 -179 0 -111 7 -135 43 -135 15 0 43 10 62 23 30 21 34 28 33 66 -2 81 -44 79 -44 -2 0 -43 -20 -47 -31 -6 -11 39 -10 187 1 194 6 4 17 -10 25 -29 20 -48 39 -48 37 -1 0 6 -3 27 -7 48 -7 41 -22 46 -67 21z"/>
 <path d="M450 785 c-7 -9 -14 -71 -17 -168 -6 -148 -5 -155 16 -176 11 -11 26 -21 31 -21 6 0 10 36 10 87 l0 88 25 -38 c24 -34 68 -58 82 -43 3 3 -14 31 -39 63 l-45 57 45 78 c25 43 42 81 39 85 -13 12 -38 -8 -69 -56 -18 -28 -36 -51 -40 -51 -5 0 -8 22 -8 49 0 53 -10 70 -30 46z"/>
 <path d="M148 733 c-54 -24 -74 -48 -59 -72 11 -17 132 -63 148 -56 21 8 3 28 -47 50 -22 10 -40 21 -40 24 0 3 20 19 46 34 25 15 42 32 39 37 -9 14 -23 12 -87 -17z"/>
 <path d="M605 750 c-3 -5 14 -22 39 -37 26 -15 46 -30 46 -33 0 -3 -23 -18 -51 -33 -38 -21 -49 -31 -41 -39 8 -8 31 -4 82 16 63 25 70 30 70 56 0 24 -7 31 -61 54 -67 29 -75 30 -84 16z"/>
 <path d="M2 490 c0 -19 2 -27 5 -17 2 9 2 25 0 35 -3 9 -5 1 -5 -18z"/>
 </g>

</svg>